<svg xmlns="http://www.w3.org/2000/svg" width="24" height="24" viewBox="0 0 24 24" fill="none" stroke="currentColor" stroke-width="2" stroke-linecap="round" stroke-linejoin="round" class="icon icon-tabler icons-tabler-outline icon-tabler-archive-off"><path stroke="none" d="M0 0h24v24H0z" fill="none"/><path d="M3 3l18 18" /><path d="M16 4h3a2 2 0 0 1 2 2v0a2 2 0 0 1 -1.166 1.818m-3.834 .182h-13a2 2 0 0 1 -2 -2v0a2 2 0 0 1 2 -2h7" /><path d="M5 8v10a2 2 0 0 0 2 2h10a2 2 0 0 0 2 -2v-7m-4 -3h-6" /></svg>
