<svg xmlns="http://www.w3.org/2000/svg" width="24" height="24" viewBox="0 0 24 24" fill="currentColor" stroke="none" stroke-linecap="round" stroke-linejoin="round" class="icon icon-tabler icons-tabler-filled icon-tabler-bell-ringing"><path stroke="none" d="M0 0h24v24H0z" fill="none"/><path d="M17.451 2.344a1 1 0 0 1 1.41 -.099a12.05 12.05 0 0 1 3.048 4.064a1 1 0 1 1 -1.818 .836a10.05 10.05 0 0 0 -2.54 -3.39a1 1 0 0 1 -.1 -1.41z" /><path d="M5.136 2.245a1 1 0 0 1 1.41 1.41a10.05 10.05 0 0 0 -2.54 3.39a1 1 0 1 1 -1.817 -.835a12.05 12.05 0 0 1 3.047 -4.065z" /><path d="M14.235 19c.865 0 1.322 1.024 .745 1.668a3.992 3.992 0 0 1 -2.98 1.332a3.992 3.992 0 0 1 -2.98 -1.332c-.552 -.616 -.158 -1.579 .634 -1.661l.11 -.006h4.471z" /><path d="M12 2a7 7 0 0 1 7 7v4l1.524 3.045c.162 .324 .176 .703 .038 1.04a1.2 1.2 0 0 1 -1.114 .749h-14.895a1.2 1.2 0 0 1 -1.114 -.748a1.2 1.2 0 0 1 .038 -1.04l1.524 -3.046v-4a7 7 0 0 1 7 -7z" /></svg>
