<svg xmlns="http://www.w3.org/2000/svg" width="24" height="24" viewBox="0 0 24 24" fill="none" stroke="currentColor" stroke-width="2" stroke-linecap="round" stroke-linejoin="round" class="icon icon-tabler icons-tabler-outline icon-tabler-qrcode"><path stroke="none" d="M0 0h24v24H0z" fill="none"/><path d="M4 4m0 1a1 1 0 0 1 1 -1h2a1 1 0 0 1 1 1v2a1 1 0 0 1 -1 1h-2a1 1 0 0 1 -1 -1z"/><path d="M4 14m0 1a1 1 0 0 1 1 -1h2a1 1 0 0 1 1 1v2a1 1 0 0 1 -1 1h-2a1 1 0 0 1 -1 -1z"/><path d="M14 4m0 1a1 1 0 0 1 1 -1h2a1 1 0 0 1 1 1v2a1 1 0 0 1 -1 1h-2a1 1 0 0 1 -1 -1z"/><path d="M14 14h3"/><path d="M14 14v3"/><path d="M17 17h3v3"/><path d="M20 14v.01"/><path d="M14 20h.01"/><path d="M17 20h.01"/><path d="M20 17h.01"/><path d="M20 20h.01"/></svg>
