<svg xmlns="http://www.w3.org/2000/svg" width="24" height="24" viewBox="0 0 24 24" fill="none" stroke="currentColor" stroke-width="2" stroke-linecap="round" stroke-linejoin="round" class="icon icon-tabler icon-tabler-sun-moon-split"><path stroke="none" d="M0 0h24v24H0z" fill="none"/><path d="M13.5 4l-3 16"/><g transform="translate(-1 5.6) scale(0.53)" stroke-width="3.8"><path d="M8 12a4 4 0 1 0 8 0a4 4 0 1 0 -8 0"/><path d="M3 12h1m8 -9v1m8 8h1m-9 8v1m-6.4 -15.4l.7 .7m12.1 -.7l-.7 .7m0 11.4l.7 .7m-12.1 -.7l-.7 .7"/></g><g transform="translate(12.3 5.6) scale(0.53)" stroke-width="3.8"><path d="M12 3c.132 0 .263 0 .393 0a7.5 7.5 0 0 0 7.92 12.446a9 9 0 1 1 -8.313 -12.454l0 .008"/></g></svg>
